<?xml version="1.0" ?><!DOCTYPE svg  PUBLIC '-//W3C//DTD SVG 1.1//EN'  'http://www.w3.org/Graphics/SVG/1.1/DTD/svg11.dtd'><svg enable-background="new 0 0 139 139" height="80px" id="Checkin" version="1.1" viewBox="0 0 139 139" width="80px" xml:space="preserve" xmlns="http://www.w3.org/2000/svg" xmlns:xlink="http://www.w3.org/1999/xlink"><path fill="#f50c1a" d="M69.896,6.767v-0.02c-0.134,0-0.265,0.008-0.396,0.008s-0.262-0.008-0.396-0.008v0.02  C42.327,7.193,20.748,29.016,20.748,55.895c0,36.221,42.526,70.601,48.752,75.486c6.227-4.884,48.752-39.266,48.752-75.486  C118.252,29.016,96.674,7.193,69.896,6.767z M69.896,77.036c-14.011,0-25.367-11.354-25.367-25.363  c0-14.013,11.356-25.369,25.367-25.369S95.264,37.66,95.264,51.673C95.264,65.682,83.907,77.036,69.896,77.036z"/></svg>